<?xml version="1.0" standalone="no"?>
<!DOCTYPE svg PUBLIC "-//W3C//DTD SVG 20010904//EN"
 "http://www.w3.org/TR/2001/REC-SVG-20010904/DTD/svg10.dtd">
<svg version="1.0" xmlns="http://www.w3.org/2000/svg"
 width="386.000000pt" height="386.000000pt" viewBox="0 0 386.000000 386.000000"
 preserveAspectRatio="xMidYMid meet">
<metadata>
Created by potrace 1.11, written by Peter Selinger 2001-2013
</metadata>
<g transform="translate(0.000000,386.000000) scale(0.100000,-0.100000)"
fill="#000000" stroke="none">
<path d="M1889 3297 c-197 -193 -366 -453 -417 -640 l-10 -37 59 -40 c201
-137 332 -362 394 -677 18 -94 22 -122 24 -177 1 -55 8 -42 15 29 16 159 68
354 127 476 30 62 90 161 112 185 69 75 131 131 174 160 29 19 55 39 58 44 3
5 -1 31 -10 57 -47 138 -163 337 -275 473 -58 70 -182 200 -191 200 -3 0 -30
-24 -60 -53z"/>
<path d="M3087 2784 c-1 -1 -45 -4 -97 -8 -90 -6 -136 -11 -170 -21 -8 -2 -29
-7 -46 -10 -119 -20 -342 -109 -336 -134 40 -178 39 -336 -1 -492 -41 -158
-149 -367 -261 -504 -45 -54 -40 -51 85 46 143 112 281 185 425 225 81 22 272
27 349 9 33 -8 66 -15 73 -15 17 0 65 106 96 212 34 118 54 217 63 318 8 96
10 356 2 364 -4 5 -177 14 -182 10z"/>
<path d="M634 2546 c-15 -11 -16 -33 -11 -197 3 -101 8 -198 11 -216 5 -32 23
-130 30 -169 3 -12 9 -39 15 -60 16 -56 15 -59 -23 -72 -45 -16 -184 -102
-260 -159 -70 -54 -219 -196 -278 -265 l-40 -48 27 -32 c85 -103 207 -218 319
-303 80 -60 292 -175 322 -175 11 0 24 -4 29 -8 19 -17 131 -35 224 -37 162
-4 309 39 479 140 125 73 261 184 372 303 l94 100 20 -26 c27 -36 109 -123
172 -183 149 -144 357 -271 523 -321 105 -31 284 -36 396 -9 112 27 279 107
399 193 89 62 274 233 329 303 28 35 28 37 11 62 -29 45 -176 193 -254 256
-91 73 -183 134 -270 177 -36 18 -72 36 -80 40 -9 4 -29 10 -46 14 -29 6 -33
4 -68 -53 -136 -221 -390 -368 -736 -427 -133 -23 -377 -37 -386 -23 -2 5 -46
9 -97 9 -51 1 -112 3 -137 5 -42 3 -60 5 -164 20 -165 24 -383 104 -503 186
-62 42 -133 106 -125 113 10 11 137 6 219 -8 165 -29 364 -130 518 -262 59
-50 76 -57 45 -16 -127 165 -228 376 -266 554 -23 111 -20 287 7 388 14 54 12
58 -33 81 -104 53 -282 104 -433 124 -98 13 -333 13 -351 1z"/>
</g>
</svg>
