
<svg version="1.1" id="Capa_1" xmlns="http://www.w3.org/2000/svg" xmlns:xlink="http://www.w3.org/1999/xlink" x="0px" y="0px"
	 width="100.811px" height="100.81px" viewBox="0 0 100.811 100.81" style="enable-background:new 0 0 100.811 100.81;"
	 xml:space="preserve">
<g>
	<path d="M50.405,0C22.609,0,0.004,22.614,0.004,50.409c0,27.787,22.608,50.401,50.401,50.401c27.795,0,50.401-22.614,50.401-50.401
		C100.807,22.614,78.2,0,50.405,0z M50.405,3.357c22.121,0,40.669,15.371,45.672,35.979H69.686
		c-3.84-6.678-11.026-11.178-19.28-11.178c-8.256,0-15.439,4.5-19.28,11.178H4.735C9.731,18.728,28.283,3.357,50.405,3.357z
		 M58.755,55.326c2.995,2.995,4.668,6.171,3.737,7.095c-0.938,0.938-4.113-0.739-7.104-3.727c-1.259-1.27-2.266-2.557-2.964-3.7
		c0.309,1.287,0.5,2.889,0.5,4.641c0,4.237-1.067,7.666-2.382,7.666c-1.313,0-2.383-3.429-2.383-7.666
		c0-1.813,0.207-3.449,0.531-4.764c-0.699,1.16-1.711,2.464-2.993,3.751c-2.993,2.987-6.179,4.661-7.104,3.724
		c-0.924-0.931,0.743-4.106,3.741-7.098c1.261-1.263,2.554-2.27,3.696-2.978c-1.289,0.312-2.894,0.514-4.665,0.514
		c-4.233,0-7.664-1.068-7.664-2.382c0-1.314,3.431-2.379,7.664-2.379c1.679,0,3.213,0.175,4.473,0.455
		c-1.097-0.686-2.313-1.656-3.504-2.849c-2.993-2.989-4.668-6.174-3.737-7.1c0.926-0.932,4.108,0.736,7.101,3.732
		c1.295,1.297,2.322,2.618,3.021,3.785c-0.348-1.328-0.558-3.01-0.558-4.882c0-4.233,1.07-7.664,2.383-7.664
		c1.314,0,2.382,3.431,2.382,7.664c0,1.812-0.205,3.444-0.528,4.758c0.699-1.155,1.713-2.455,2.992-3.738
		c2.991-2.993,6.174-4.665,7.104-3.732c0.924,0.933-0.753,4.106-3.737,7.099c-1.293,1.294-2.614,2.32-3.777,3.015
		c1.32-0.337,2.997-0.548,4.859-0.548c4.229,0,7.669,1.068,7.669,2.382c0,1.313-3.433,2.382-7.669,2.382
		c-1.944,0-3.703-0.229-5.048-0.603C55.997,52.879,57.39,53.954,58.755,55.326z M50.405,97.45
		c-22.123,0-40.674-15.376-45.674-35.984h26.39c3.842,6.677,11.028,11.174,19.284,11.174c8.254,0,15.44-4.497,19.28-11.174h26.392
		C91.081,82.083,72.526,97.45,50.405,97.45z M49.104,49.279l-6.524-6.522l0.245-0.245l6.511,6.511
		C49.245,49.101,49.172,49.187,49.104,49.279z M50.542,48.548c-0.066,0-0.107,0.026-0.171,0.033v-9.269h0.342v9.269
		C50.662,48.574,50.612,48.548,50.542,48.548z M49.662,48.802c0.027-0.169,0.014-0.365-0.027-0.579
		c0.136,0.185,0.283,0.322,0.436,0.416C49.93,48.678,49.793,48.728,49.662,48.802z M48.433,51.305
		c0.144-0.113,0.277-0.232,0.364-0.35c0.043,0.123,0.091,0.243,0.161,0.356C48.804,51.285,48.626,51.285,48.433,51.305z
		 M52.073,51.404c0.12-0.185,0.204-0.38,0.248-0.602c0.11,0.208,0.288,0.407,0.562,0.592C52.564,51.326,52.301,51.339,52.073,51.404
		z M51.957,49.238c-0.073-0.089-0.157-0.167-0.248-0.236l6.557-6.56l0.243,0.244L51.957,49.238z M51.445,48.819
		c-0.128-0.077-0.271-0.13-0.422-0.18c0.15-0.087,0.287-0.226,0.422-0.409C51.415,48.451,51.415,48.651,51.445,48.819z
		 M52.787,49.495c-0.212,0.161-0.366,0.332-0.466,0.51c-0.041-0.178-0.101-0.346-0.191-0.51
		C52.321,49.54,52.539,49.54,52.787,49.495z M48.895,49.59c-0.038,0.079-0.065,0.171-0.098,0.257
		c-0.066-0.086-0.164-0.171-0.267-0.257C48.66,49.601,48.786,49.608,48.895,49.59z M49.134,51.565c0.073,0.1,0.15,0.178,0.245,0.246
		l-6.554,6.561l-0.245-0.246L49.134,51.565z M61.691,50.586h-9.32c0.007-0.065,0.031-0.12,0.031-0.178
		c0-0.062-0.024-0.117-0.031-0.182h9.32V50.586z M51.923,51.613l6.586,6.585l-0.243,0.246l-6.6-6.598
		C51.762,51.774,51.853,51.706,51.923,51.613z M52.053,50.409c0,0.831-0.678,1.509-1.511,1.509s-1.515-0.678-1.515-1.509
		c0-0.835,0.678-1.513,1.515-1.513C51.375,48.896,52.053,49.574,52.053,50.409z M51.023,52.174c0.164-0.059,0.314-0.123,0.458-0.198
		c-0.057,0.171-0.07,0.369-0.043,0.592C51.302,52.4,51.167,52.26,51.023,52.174z M49.635,51.993c0.136,0.079,0.276,0.13,0.436,0.182
		c-0.152,0.086-0.291,0.226-0.428,0.407C49.673,52.359,49.673,52.167,49.635,51.993z M48.724,50.586h-9.209v-0.359h9.209
		c-0.007,0.064-0.034,0.12-0.034,0.182C48.689,50.463,48.717,50.521,48.724,50.586z M50.542,52.26c0.07,0,0.116-0.024,0.171-0.031
		v9.268h-0.342v-9.268C50.435,52.236,50.479,52.26,50.542,52.26z M24.163,23.767c-0.922,0.722-1.129,1.93-0.758,2.895
		c0.067,0.215,0.221,0.482,0.411,0.72l3.609,4.624l-1.398,1.093l-4.38-5.611c-0.616-0.795-1.145-1.434-1.686-2.029l1.241-0.967
		l1.073,1.211l0.031-0.027c-0.192-1.026,0.144-2.438,1.414-3.431c1.064-0.826,3.21-1.485,5.267,1.153l3.584,4.587l-1.398,1.097
		l-3.46-4.43C26.744,23.409,25.48,22.737,24.163,23.767z M33.652,17.97c1.839-0.77,2.599,0.481,2.916,1.22l0.073,0.193
		c-3.477,1.437-4.907,3.431-3.999,5.602c0.546,1.297,2.011,2.195,3.829,1.431c1.277-0.536,1.98-1.572,2.187-2.495l0.056-0.021
		l0.606,1.082l1.487-0.623c-0.368-0.568-0.726-1.314-1.052-2.096l-1.412-3.36c-0.753-1.805-2.207-3.395-4.955-2.247
		c-1.131,0.478-2.077,1.246-2.615,2.04l0.825,0.918C32.054,18.945,32.813,18.313,33.652,17.97z M37.812,22.052
		c0.07,0.169,0.108,0.365,0.122,0.562c0.063,0.869-0.371,1.923-1.538,2.411c-0.833,0.354-1.752,0.144-2.197-0.91
		c-0.729-1.749,1.164-2.913,2.958-3.621L37.812,22.052z M39.766,14.625l1.487-0.28l-0.435-2.296l1.612-0.777l0.522,2.746
		l2.492-0.472l0.253,1.321l-2.491,0.476l0.977,5.166c0.231,1.186,0.693,1.795,1.665,1.605c0.452-0.087,0.773-0.21,0.984-0.312
		l0.327,1.293c-0.313,0.199-0.828,0.399-1.498,0.529c-0.809,0.151-1.511,0.021-2.017-0.375c-0.594-0.417-0.929-1.234-1.143-2.363
		l-0.999-5.217l-1.479,0.284L39.766,14.625z M48.663,18.822l0.228-5.705l1.778,0.077l-0.221,5.397
		c-0.074,1.85,0.438,3.123,2.053,3.189c1.183,0.048,2.045-0.744,2.401-1.518c0.116-0.257,0.185-0.575,0.198-0.897l0.246-5.985
		l1.772,0.077l-0.294,7.089c-0.041,1.01-0.062,1.896-0.021,2.663l-1.574-0.067l-0.034-1.593l-0.048-0.005
		c-0.496,0.768-1.561,1.757-3.292,1.682C50.321,23.165,48.523,22.246,48.663,18.822z M60.583,24.268l-1.688-0.464l1.776-6.471
		c0.308-1.109,0.544-2.064,0.732-2.955l1.492,0.41l-0.445,1.857l0.072,0.022c0.776-1.143,2.025-1.658,3.169-1.347
		c0.198,0.06,0.328,0.117,0.472,0.197l-0.444,1.612c-0.165-0.087-0.339-0.157-0.568-0.221c-1.205-0.33-2.304,0.348-2.892,1.566
		c-0.103,0.228-0.216,0.484-0.298,0.775L60.583,24.268z M71.773,22.172c-3.34-1.732-5.791-1.542-6.865,0.554
		c-0.644,1.25-0.38,2.95,1.379,3.85c1.242,0.635,2.484,0.504,3.31,0.073l0.059,0.026l-0.432,1.157l1.427,0.732
		c0.202-0.646,0.534-1.396,0.928-2.149l1.66-3.244c0.883-1.742,1.163-3.884-1.485-5.243c-1.096-0.561-2.293-0.789-3.251-0.685
		l-0.172,1.224c0.809-0.081,1.78,0.09,2.588,0.508c1.772,0.915,1.307,2.306,0.944,3.018L71.773,22.172z M70.479,24.787
		c-0.079,0.164-0.212,0.322-0.355,0.455c-0.623,0.609-1.704,0.957-2.841,0.378c-0.804-0.409-1.242-1.244-0.712-2.267
		c0.855-1.679,2.971-0.984,4.675-0.07L70.479,24.787z M72.263,29.893l8.757-11.315l1.403,1.086l-8.761,11.315L72.263,29.893z
		 M33.789,76.157h1.509V89.25h-1.709V77.803h-0.043l-2.274,1.235l-0.344-1.355L33.789,76.157z M44.43,75.934
		c-2.656,0-4.551,2.416-4.551,6.807c0.042,4.326,1.772,6.729,4.331,6.729c2.898,0,4.553-2.461,4.553-6.913
		C48.763,78.391,47.188,75.934,44.43,75.934z M44.312,88.093c-1.612,0-2.661-1.934-2.661-5.328c0-3.569,1.129-5.466,2.678-5.466
		c1.833,0,2.663,2.119,2.663,5.339C46.988,85.982,46.119,88.093,44.312,88.093z M54.755,75.934c-2.664,0-4.557,2.416-4.557,6.807
		c0.046,4.326,1.777,6.729,4.327,6.729c2.896,0,4.552-2.461,4.552-6.913C59.084,78.391,57.51,75.934,54.755,75.934z M54.632,88.093
		c-1.608,0-2.656-1.934-2.656-5.328c0-3.569,1.126-5.466,2.677-5.466c1.831,0,2.659,2.119,2.659,5.339
		C57.312,85.982,56.441,88.093,54.632,88.093z M68.937,85.465c0.021,2.614,1.431,3.922,3.065,3.922c1.674,0,3.125-1.373,3.125-4.131
		c0-2.495-1.194-3.904-3.025-3.904C70.367,81.352,68.937,82.823,68.937,85.465z M73.734,85.334c0,1.739-0.527,2.988-1.688,2.988
		c-1.092,0-1.731-1.27-1.718-2.943c0-1.652,0.609-2.967,1.718-2.967C73.266,82.413,73.734,83.75,73.734,85.334z M63.334,89.469
		l7.7-13.535h1.122l-7.692,13.535H63.334z M66.603,79.839c0-2.495-1.215-3.905-3.039-3.905c-1.729,0-3.159,1.469-3.159,4.09
		c0.021,2.635,1.431,3.945,3.06,3.945C65.148,83.969,66.603,82.6,66.603,79.839z M61.808,79.962c0-1.649,0.582-2.964,1.684-2.964
		c1.232,0,1.69,1.328,1.69,2.923c0,1.731-0.52,2.98-1.69,2.98C62.39,82.902,61.771,81.632,61.808,79.962z"/>
</g>
<g>
</g>
<g>
</g>
<g>
</g>
<g>
</g>
<g>
</g>
<g>
</g>
<g>
</g>
<g>
</g>
<g>
</g>
<g>
</g>
<g>
</g>
<g>
</g>
<g>
</g>
<g>
</g>
<g>
</g>
</svg>
